<svg fill="none" height="44" viewBox="0 0 44 44" width="44" xmlns="http://www.w3.org/2000/svg"><path d="m5.5 5.5h33v33h-33z" fill="#fff"/><g clip-rule="evenodd" fill="#19938d" fill-rule="evenodd"><path d="m5.5 30.8397c.83392 4.2439 4.6205 6.884 9.0295 7.6528h-8.95383zm32.9738-8.3703v16.0231s-19.5091.003-19.3315.0075c2.3906-.3174 2.9867-.5371 3.9611-.7718-.1143.0316 2.5929-.9056 3.1905-1.205.5915-.2873 1.1366-.5701 1.725-.8559-.1004.0451 4.3611-2.1062 7.5655-6.6268 1.0177-1.4352 1.779-2.7937 2.4029-4.7042.1977-.6003.3506-1.184.4865-1.8669z"/><path d="m32.9569 16.5376c.9281-.1038 2.074.179 2.5589.4303 1.5551.8063 1.6832 1.6954 1.8408 2.0234.8972 1.8428-.6178 5.9768-1.6741 7.7129-.1837.2994-.7134 1.2832-.9821 1.4066-.2039.0948-.7413.0346-.9328-.0211-.2674-.0932-.5068-.2499-.6965-.4558-.1257-.172-.2212-.3631-.2826-.5657-.3907-1.372.6811-3.1381 1.0733-4.1054.2131-.534.4741-1.0425.6764-1.545-.176.4393.5112-.9222.9312-2.0866.1962-.5506.2765-1.1568-.2563-1.3855-.5004-.2166-1.4717-.3866-1.9566-.0707-.3815.2497-.4602.6785-.6965 1.0681-.2903.4709-.5112.9794-.7969 1.4743-.437.7702-1.0099 1.4277-1.5597 2.0881-.193.2347-1.3806 1.6608-1.9767 2.1813-.7305.6273-1.7049 1.3555-1.4007 1.1328-.5559.4047-1.1953.8425-2.0477.9538-.7691.0993-1.1706-.2362-1.4192-.6589-1.4733-2.5229 4.0893-7.564 5.7262-8.3719 1.1196-.5551 2.3597-1.041 3.8716-1.205z"/><path d="m38.0555 5.9423c.1452-.01053.2965 0 .4447 0v13.1588c-.0926-.2212-.1482-.498-.2578-.7251-1.9613-4.0739-7.4605-2.9712-7.3123-2.9937-1.4856.2211-3.1859.8244-4.168 1.2727-.627.2723-2.2655 1.1659-3.6785 2.246-1.3081.9869-2.5574 2.1091-3.4963 3.4465-1.0301 1.2186-1.7837 3.1652-1.4192 2.2731-1.0301 2.4913-.1622 3.4571-.139 3.4917 1.5227 2.4762 5.9841.8214 7.7323-.2919.7704-.4977 1.4949-1.06 2.1651-1.6803.6024-.5255 1.1635-1.0942 1.6786-1.7015-.4154.7687-1.2261 1.9121-1.0069 3.0885.1066.5431.329.9583.6996 1.2456.5143.3927 1.2308.5762 2.0045.6364.8725.0632 1.4964.0135 2.3056-.0256-.7675.9523-1.8053 1.8098-2.7951 2.5183-.2935.2121-.7197.4679-1.0224.6604-1.5288.9719-2.4106 1.348-5.334 2.0866-.5698.1414-3.487.4814-4.5186.4077-3.4499-.2512-6.2034-1.3329-7.9639-3.1998.1436.1549-1.7697-1.9271-2.05081-5.0337.07104-.4272-.33511-1.9301.83851-4.7252-.1884.4543.8772-2.2024 2.8385-4.7629.5713-.7431 2.0168-2.2866 4.1695-3.9489.9977-.7673 1.81-1.3404 3.4021-2.3123 1.5891-.9718 4.4152-2.24149 4.3766-2.22494 1.1257-.50547 3.0082-1.16138 2.772-1.08917 3.1594-.98045 6.4275-1.59052 9.7352-1.81729z"/><path d="m5.57567 5.5h28.22973c-2.5389.40919-4.9402.83492-7.3169 1.47278-1.796.47839-3.5457 1.17642-5.1672 1.83684-1.8825.73865-4.6236 2.23098-6.9401 4.08588-.8462.6695-1.5196 1.2381-1.8655 1.539-1.2231 1.0771-2.53107 2.574-2.0462 2.064-1.83767 1.9045-3.72017 5.5376-3.14723 4.4695-.59301 1.0922-1.19992 2.9456-1.11653 2.6582-.20693.6966-.54668 1.5014-.70574 2.2476z"/></g></svg>