<svg fill="none" height="44" viewBox="0 0 44 44" width="44" xmlns="http://www.w3.org/2000/svg" xmlns:xlink="http://www.w3.org/1999/xlink"><mask id="a" height="14" maskUnits="userSpaceOnUse" width="5" x="33" y="16"><path clip-rule="evenodd" d="m33.0938 16.1272h4.306v13.5839h-4.306z" fill="#fff" fill-rule="evenodd"/></mask><path clip-rule="evenodd" d="m12.2261 14.8785c-.0066.0814-.0132.1639-.0132.2486v14.036c0 1.5092 1.1913 2.7247 2.6708 2.7247h.1056v5.5528c0 1.1924.9647 2.1593 2.1538 2.1593s2.1527-.9669 2.1527-2.1593v-5.5528h5.4087v5.5528c0 1.1924.9636 2.1593 2.1527 2.1593 1.1902 0 2.1538-.9669 2.1538-2.1593v-5.5528h.1045c1.4795 0 2.6708-1.2155 2.6708-2.7247v-14.036c0-.0847-.0033-.1672-.0099-.2486z" fill="#a4c639" fill-rule="evenodd"/><path clip-rule="evenodd" d="m8.75231 16.1272c-1.1891 0-2.1538.9669-2.1527 2.1604v9.2642c0 1.1924.9636 2.1593 2.1527 2.1593s2.15379-.9669 2.15379-2.1593v-9.2653c0-1.1924-.96469-2.1593-2.15379-2.1593z" fill="#a4c639" fill-rule="evenodd"/><g mask="url(#a)"><path clip-rule="evenodd" d="m35.2464 16.1272c-1.1891 0-2.1526.9669-2.1526 2.1604v9.2642c0 1.1924.9635 2.1593 2.1526 2.1593s2.1538-.9669 2.1538-2.1593v-9.2653c0-1.1924-.9647-2.1593-2.1538-2.1593z" fill="#a4c639" fill-rule="evenodd"/></g><path clip-rule="evenodd" d="m27.4231 10.0923c.0022.6028-.495 1.0934-1.111 1.0945-.6149.0022-1.1143-.4851-1.1165-1.0879v-.0066c-.0022-.60283.495-1.09233 1.1099-1.09453.616-.0011 1.1154.4862 1.1176 1.08903zm-8.316 0c.0011.6028-.4961 1.0934-1.111 1.0945-.6149.0022-1.1154-.4851-1.1165-1.0879v-.0066c-.0022-.60283.495-1.09233 1.111-1.09453.6138-.0011 1.1143.4862 1.1165 1.08903zm12.5686-4.45063c.2277-.3949.0924-.902-.3014-1.1297-.396-.2299-.9009-.0935-1.1275.3025l-1.716 2.981c-1.474-1.1693-3.3605-1.9492-5.4483-2.1516h-2.1648c-2.0878.2024-3.9743.9823-5.4483 2.1516l-1.7171-2.981c-.2266-.396-.7304-.5324-1.1264-.3025-.3949.2277-.5302.7337-.3025 1.1297l1.9173 3.3286c-1.2023 1.39153-1.925 3.11523-1.9514 4.98633h19.4205c-.0253-1.8711-.748-3.5948-1.9503-4.98633z" fill="#a4c639" fill-rule="evenodd"/></svg>