<svg fill="none" height="34" viewBox="0 0 30 34" width="30" xmlns="http://www.w3.org/2000/svg" xmlns:xlink="http://www.w3.org/1999/xlink"><clipPath id="a"><path d="m0 0h30v34h-30z"/></clipPath><g clip-path="url(#a)"><path d="m29.9495 10.0007c-.0002-.57017-.1213-1.07398-.3661-1.50637-.2405-.4252-.6006-.78157-1.0836-1.06334-3.9873-2.3159-7.9785-4.62471-11.9645-6.942973-1.0746-.624923-2.1165-.60214-3.1832.031754-1.5871.942819-9.53296 5.528459-11.90073 6.909919-.97512.56862-1.44961219 1.43883-1.44984656 2.56993-.00152344 4.65738 0 9.31468-.00152344 13.97228.00023438.5576.116133 1.0516.350156 1.4775.240586.4381.605742.8042 1.099924 1.0924 2.36789 1.3814 10.31482 5.9667 11.90152 6.9098 1.0671.6342 2.1091.6569 3.184.0317 3.9862-2.3183 7.9776-4.627 11.9655-6.9429.4941-.2881.8593-.6545 1.0999-1.0922.2336-.4259.3498-.9199.35-1.4776 0 0 0-9.3124-.0015-13.9699z" fill="#5c8dbc"/><path d="m15.0208 16.9403-14.671191 8.5091c.240586.438.605743.8042 1.099921 1.0924 2.36789 1.3814 10.31487 5.9667 11.90157 6.9098 1.0671.6342 2.109.6569 3.184.0317 3.9861-2.3184 7.9775-4.6271 11.9654-6.943.4942-.288.8593-.6544 1.0999-1.0921z" fill="#1a4674"/><path d="m10.6758 19.4608c.8537 1.5012 2.4586 2.5138 4.2996 2.5138 1.8524 0 3.4664-1.0254 4.3158-2.5428l-4.27-2.4915z" fill="#1a4674"/><path d="m29.9496 10.0006c-.0002-.57013-.1212-1.07394-.366-1.50634l-14.5621 8.44604 14.5796 8.5079c.2337-.4259.3498-.9199.3501-1.4777 0 0 0-9.3123-.0016-13.9699z" fill="#1b598e"/><g fill="#fff"><path d="m29.1472 17.5485h-1.1392v1.1479h-1.1396v-1.1479h-1.1392v-1.1475h1.1392v-1.1476h1.1396v1.1476h1.1392zm-4.1572 0h-1.1391v1.1479h-1.1393v-1.1479h-1.1393v-1.1475h1.1393v-1.1476h1.1393v1.1476h1.1391z"/><path d="m19.2914 19.4319c-.8494 1.5173-2.4634 2.5427-4.3158 2.5427-1.841 0-3.4459-1.0125-4.2996-2.5138-.4289-.7533-.6541-1.6068-.6532-2.4752 0-2.7552 2.2175-4.9888 4.9528-4.9888 1.8292 0 3.4256.9999 4.2835 2.4858l4.3291-2.511c-1.7207-2.99192-4.9332-5.0048-8.6126-5.0048-5.4933 0-9.9463 4.4857-9.9463 10.0188 0 1.8153.47941 3.5176 1.3173 4.986 1.71633 3.0077 4.9379 5.033 8.629 5.033 3.6978 0 6.9245-2.0334 8.6383-5.05z"/></g></g></svg>