<svg fill="none" height="44" viewBox="0 0 44 44" width="44" xmlns="http://www.w3.org/2000/svg"><path d="m15.8621 33.7128c-1.2581-.99-2.5987-1.9367-3.5145-3.2711-1.9284-2.3543-3.41342-5.0789-4.42817-7.9437-.61359-1.8625-.825-3.86-1.61494-5.6513-.82706-1.2993.14232-2.7225 1.5675-3.135.63422-.1217 1.749-.7218.40219-.2928-1.20656.8848-1.32309-.8044-.08559-.9117.84562-.1134 1.155-.8043.86625-1.4252-.9075-.5919 2.19866-1.24055.63525-2.12433-1.62731-1.75313 2.27701-2.09138 1.31381-.09694-.2289 1.53247 2.7287-.28256 2.0419 1.48917.6981.8507 2.6132.1938 2.5647 1.387 1.0168.0701 1.3654.925 2.3203.99.99.4465 2.7813.7982 3.1175 1.913-.9797.7765-3.2516-1.6036-3.3619.5465.297 3.1763.2207 6.4474 1.3819 9.472.5496 1.8305 1.882 3.2722 3.0834 4.6984 1.1519 1.3963 2.7122 2.3801 4.3003 3.2072 1.3943.6579 2.8978 1.0931 4.4169 1.3674.6156-.4712 1.7046-2.2233 2.6647-1.485.0464.8312-1.9078 1.7367-.0928 1.6449 1.0674-.3218 1.8068.825 2.6844-.2104.8095.9591 3.3618-.6115 2.7874 1.3468-.7786.5022-1.914.1991-2.6936.89-1.286-.6425-2.31.5744-3.7331.4207-1.5809.2836-3.1887.3971-4.7912.3991-2.6297-.2062-5.3141-.2949-7.8148-1.2106-1.4098-.4095-2.7844-1.2118-4.0219-2.0151zm2.2203.9622c1.3757.594 2.7225 1.221 4.2281 1.4107 2.3925.3321 4.8624.8457 7.2631.3775-1.0869-.4909-2.2099.1907-3.2928-.3507-1.2993.2785-2.6812-.0721-4.0218-.2444-1.5005-.6682-3.1206-1.1282-4.5252-1.9965-1.7562-.6414.9075.823 1.3819.9416 1.0973.6228-1.2065-.3094-1.5324-.5775-.9199-.5157-1.0364-.4084-.0908.1155l.5775.3238zm-2.6194-1.8501c1.3334.495-.0062-.9384-.6156-.8559-.2702-.4692-1.0344-.7662-.495-1.0179-.9694.3362-1.0148-1.2787-1.4696-1.0477-1.025-.3238-.3991-1.4706-1.619-2.176-.1114-.7425-1.2128-1.3849-1.5634-2.5038-.15469-.5734-1.24472-2.2172-.57544-.6868.56925 1.4746 1.57164 2.7359 2.40694 3.9961.6476 1.2003 1.4128 2.4543 2.5926 3.204.398.3816.7817.9663 1.3427 1.086zm-3.8403-4.2178c.0464-.2011.2433.4352 0 0zm5.4377 4.8087c.295-.132-.4248-.167 0 0zm.7219.264c-.0753-.364-.33.2042 0 0zm.9075.3775c.4311-.4105-.6651-.2579 0 0zm1.5531.8662c.2619-.3867-.8384-.1444 0 0zm-2.9803-2.078c.6703-.4331-.8663-.0061 0 0zm.6806.3404c-.0206-.229-.2424.1031 0 0zm3.3959 2.1202c.5465.3444 3.1886.7549 1.5345.1413-.2785.0577-3.068-.79-1.5345-.1413zm-5.3914-4.1992c-.0515-.229-.8477-.2537 0 0zm1.5809.9219c.4125-.2888-.8539-.2217 0 0zm1.3406.825c.591-.2228-.957-.2238 0 0zm-3.567-2.4492c.6393.4908 2.5843.0618.9796-.2929-.7291-.3888-2.3718-.6548-1.2519.2341l.2712.0588zm4.455 2.7194c.2681-.4538-1.12-.2599 0 0zm-1.3541-1.0756c1.5675.4434-1.3169-.99-.3867-.165l.2063.0928.1804.0701zm2.7143 1.5675c1.485.0144-1.3407-.2063 0 0zm-6.3866-4.0704c-.0577-.2763-.3661.0227 0 0zm8.8966 5.478c.0392-.4991-.4847.3713 0 0zm-6.3628-3.929c-.0897-.263-.464-.0103 0 0zm-2.3925-1.7222c.8518-.0516-1.1653-.3754 0 0zm-2.8328-1.8294c-.1062-.4084-.9261-.7343 0 0zm7.4374 4.72c-.1547-.1784-.0722.0381 0 0zm4.6282 2.8411c-.0144-.2723-.2516.1031 0 0zm-5.0377-3.2639c.0825-.3507-.727-.1062 0 0zm-3.4485-2.1863c.6343-.067-1.0157-.4279 0 0zm5.8328 3.6249c.9879-.3919-.9622-.1908 0 0zm-3.0339-2.0594c1.1374.1464-1.3541-.7735-.2506-.0825zm3.9548 2.4316c1.0622-.6342.7116 1.4881 1.8026.1795 1.0756-.7858-.9281.9714.396.1402.9591-.6414 2.375.3043 3.2691.6116.6435-.031 1.2684.5568 1.9284.199 1.2685-.3424-2.4832-.5074-1.4994-1.1138-1.1612.3383-2.0192-.4021-2.5915-1.1467-1.3035-.3011-2.8092-.9673-3.4599-2.1203-.265-.4331.3816.0619-.2289-.6465-.7838-.6982-1.1756-1.4912-1.7036-2.341-.6291-.3351-.7044-1.3241-.7673-.033.0052-.8147-.76-1.3643-.9488-1.1364-.003-.7838.8199-.3919.2434-.9715-.1237-.8146-.5321-1.6603-.6538-2.5801-.1908-.4435-.0268-1.3922-.6497-.3888-.2268 1.0591-.0753-1.3015.2785-.5239.464-.7941-.1671-.7013-.1918-.5909.3021-.6703.1918-1.6211-.0795-1.2581.1609-.7116.2548-2.6143-.2402-2.277.299-.7425.5692-3.4001-.7343-2.3874-.528.0072-1.4417.1918-1.8738.4063 1.3541.7467-.1361.2702-.6888.1506-.0722.6909-.6188.3919-1.2994.3991 1.091.1341-.5311 1.1137-1.155.7342-.8126.3878.7012 1.3572.0155 1.6573.0845.4506-1.2448-.163-1.1406.8806-.78789-.332-.1083 1.2375.2867.7065 1.3406.363.9436 1.19.9776 1.9769-.2186.4578-1.0787-1.0767-.1918-1.0055-.7013-1.1375-.7734-.4125-1.3561.1176-.13407.0381 1.485.7528.4682 1.1034.8941.1382.9199.9209 1.1014 1.4149.5362.5599.4259-.6188 1.0694.0546-.4074-.5981-2.1553-1.6881-.7477-1.3406-.0072-.6023-.2547-1.089.1774-1.0777.428-.7734-.4476 1.9079.5156.924.2661-.1165.3331-.7734.8116.0619.6951.6848.2516 1.1798-.7301.5528.1753.596 1.3128.8085 1.0983 1.7397.2268.8198.5434.5177.8198.4702.2062.7962.3403.2104.3506-.1681.9921.2125.759.7993 1.0705 1.2087.6837.3093-.9797-2.0914.1959-.7219 1.2344 1.1137.4641 1.5809-.6445 1.4025.7012-.0567.9281.9487 1.8047.9126.8002.3816 1.3406 1.8429-.0372 1.2334-.4774-.431-2.1718-.9632-.7878-.1444 1.2766.592 2.2914.9447 3.5227 1.6882.8807.6188 1.2612 1.3489 1.5954 1.4922-.7405.3537-2.2317-.2825-1.1344-.4774-.691-.1259-1.4685-.4744-.8065.3856.5631.4703 1.9934.4208 2.2502.4744-.2165.4785-.5909.5156.0083.5538-.6683.3568.2145.4125.2764.6157zm-1.3674-3.861c-.4074-.4259-.5126-1.222-.0722-.529.2268.0908.7219 1.3025.0722.529zm4.455 2.8164c.2537-.0165.0072.1928 0 0zm-5.0944-3.8724c-.0165-.6435.1464.495 0 0zm-.4434-.595c-.5126-.99.6445.2785 0 0zm-5.3646-3.7125c.3011-.0804.1485.5136 0 0zm4.2694 2.3141c.1856-.694.2062.5817 0 0zm-3.0164-2.0975c-.2125-.3816.4434.3589 0 0zm2.5884.8291c-.4847-1.0859.3444-.593.1083.1774zm-4.4633-2.9762c-.2062-.3568-.5744-1.4025-.4589-1.7222.1032.5198 1.1055 2.2378.4909.7219-.6785-1.2787.8116.4146.9653.7343.0721.3165-.4187-.0867-.0867.6579-.6063-.8477-.3578.4682-.9095-.3816zm-1.3787-.9508c.0567-.8291.3155.5672 0 0zm.6208.2145c.2959-.6249.5012.8714 0 0zm-1.5056-1.1344c-.5136-.5104-.8849-.9797.0247-.3166.3506.0134-.7786-1.0694.0846-.3444.9075.165.4475 1.4881-.1083.66zm.7837-.0206c.2991-.296.1588.2908 0 0zm.4826.1547c-.4537-.8477.5487.3558 0 0zm-.959-.9158c-1.4933-1.3303 1.8768.6941.2433.2475zm4.2776 2.4854c-.6466-.3868-.1722-2.7267.0485-1.1272.629-.2032-.0351.8271.4331.8167-.0722.6497-.2836.8838-.4816.3094zm1.5819.9353c.0619-.7054.1341.4826 0 0zm-.2743-.2723c.0722-.3011.0062.3548 0 0zm-5.282-3.5856c-.9591-1.3231 2.7874 1.3386.6146.3351-.2269-.0598-.5002-.0804-.6146-.3351zm3.0473 1.6149c-.0908-1.1137.2021.1857 0 0zm2.3131 1.485c.1784-.6342.0134.4197 0 0zm-5.213-3.6052c.5703-.1217 2.3719 1.0003.7167.3197-.1825-.2022-.5733-.1104-.7167-.3197zm4.8943 2.4399c.0619-1.1395.3403-.6806.0021.165zm-4.4704-2.8359c.233-.3403-.6167-1.5397.1217-.4301.3093.2537.925.4249.3918.5322.8405.7425-.2062.2011-.5125-.1032zm4.2281 2.4812c.1598-1.2994.1413.76 0 0zm-4.7128-3.6795c.1774-.0763.0928.2372 0 0zm1.1034.6569c.2836-.5961.5239.6641 0 0zm3.1113 1.7304c-.0021-.2269.0588.3331 0 0zm-.1805-.3981c-.431-1.0652.4125.5641 0 0zm-.265-.6991c-.0722-.4404.2475.5527 0 0zm.4311-.7013c-.297-.5218.3743-2.2997.4496-1.1962-.3125.86-.0897 1.3406.1268.1856.4022-.9075-.0866 1.7913-.5775 1.0106zm.4434-2.6462c.1289-.1588.0289.1908 0 0zm-.7415 14.5932c-.1753-.1546.0227.097 0 0zm1.5263.7714c.8487.2186.8456-.132.0773-.2372-.4125-.3836-1.7139-.7909-.5486-.0474.0763.2062.3197.1908.4713.2836zm-3.0113-2.0006c.4672.3506 1.7604.9879.6662.1341.3692-.429-.7064-.658-.3506-.9447-.9075-.5568-.7167-.5156-.0804-.4878-1.0911-.4877.1577-.4506.099-.7012-.4208-.0825-2.0894-.7425-1.1076.0536-.9983-.5084-.2372.1898-.5394.1166-1.0312-.2785.9075.7775-.1619.5156.5848.464 1.5758 1.189.2475.4909-.1753.2516.9508.6342 1.2375.825zm1.5954.9178c1.9387.6249-.9519-.7631 0 0zm8.1675 4.9479c.0247-.3856-.2651.33 0 0zm.8394.3538c.4476-.4332.0186.6909.7425-.1063.0072-.5702-.0206-.9075-.8312-.2145-.2238.1238-.3228.6497.0897.3197zm-13.3268-8.3728c-.1372-.5403-.9632-.5383 0 0zm.8972.5879c-.3331-.5518-1.188-.5002 0 0zm5.1005 3.0762c.4981.4434 2.2873.3248.6043.0546-.2475-.3681-1.5809-.2784-.6043-.0546zm7.0105 4.3312c.7662-.6435-.7425.2867 0 0zm1.5943 1.0952c.0051-.2062-.33.0897 0 0zm.0031-.2887c.8487-.8972-.8219.0515 0 0zm-16.81045-10.6477c-.72187-1.0312-.44962-1.4953-1.14675-2.3378-.132-.6446-1.19625-2.1069-.55069-.5569.59194.9075.76725 2.31 1.69744 2.8978zm16.54125 10.3599c1.5623-1.0085-.6394-.4393 0 0zm1.1921.4672c.7838-.6703-.495-.1403 0 0zm-15.7946-10.1207c.2238-.3331-.5775-.0433 0 0zm15.5461 9.802c.7569-.4877-.1753-.4125-.1372.0444zm-10.2733-6.4762c-.0258-.33-.4001.0278 0 0zm.6342.3651c-.2021-.4084-.3094.0639 0 0zm10.8539 6.4401c.9694-.7012-.5878-.1341-.2031.1341zm-.3712-.1794c.7909-.6621-.8354.2928 0 0zm1.8975 1.2633c.53-.3548-.6446-.1135 0 0zm-17.7994-11.4572c.7115.1588 2.8411 1.751 1.585.1103-.6435-.1908-.2578-1.7634-.9147-1.485.4403.7363.3609 1.0498-.5631.5858-1.1622-.5672-.6527.2805-.4259.5156-.3093.0722.4094.2681.3197.2743zm-3.23814-2.5575c.12684-.526-1.17253-2.8978-.6136-1.188.2011.3578.18047 1.0364.6136 1.188zm5.94614 3.6661c-.3671-.3063-.0175-.0434 0 0zm.9014.2103c0-.5568-.9962-.2268 0 0zm7.8137 4.9253c-.1495-.3816-.5878-.0083 0 0zm.3754.2743c-.0557-.2135-.2062.0412 0 0zm3.0969 1.9511c.299-.2196-.3713-.0289 0 0zm-16.5176-10.6126c.8518-.33-.91263-.2351 0 0zm12.3544 7.7839c-.0103-.5517-.5435.1372 0 0zm-12.6916-8.5697c.5466-.1856-.50531-.1217 0 0zm1.5881.7693c-.0103-.1815-.1681.0691 0 0zm19.3752 11.88c.7033-.1423 2.3079.3579 2.5678-.1856-.856-.0206-2.9566-.6033-3.0556.1382l.1856.0309.3022.0186zm-18.8699-11.7521c.0124-.5589-.4351-.0206 0 0zm-4.17652-2.8978c-.18975-1.0643-.72187-.1609 0 0zm.99516.2506c.01237-.3424-.91163-.3073 0 0zm.56925.2784c-.165-.134-.12788.1681 0 0zm3.58151 2.2966c.1691-.1547-.3991-.1134 0 0zm-3.95998-2.9287c-.09694-.8044-1.155-.1207 0 0zm-2.04188-1.3252c-.02887-.3712-.19903.1403 0 0zm.30422-.2289c-.0495-.4404-.2609.0557 0 0zm1.67785 1.0003c.70949-.2785-1.29216-.5775-.14438-.0516zm22.45859 13.8775c.4537-.4166-.5775-.1289 0 0zm2.7122 1.4056c.1825-.5362-.4589.0722 0 0zm-25.00064-16.1576c.07528-.5208-.56306.1031 0 0zm-2.38837-1.5985c-.12581-.7373-.10725-2.0264 1.11787-1.5912-1.63659.3259 1.13438 2.0357.78375.6848.68888.034 1.34679-.4074.98489.2609 1.3581-.1475 2.2966-1.3252 3.6083-1.1591 1.0313-.1362 2.1368-.2372 3.2381-.6497.9044-.065 1.7738-1.0385 1.2788-1.616-1.2334-.1031-2.5245.0495-3.8878.3218-1.5108.3135-2.8824.9105-4.40657 1.1653-1.485.2.29907.5496-.12684.629-.77344.2682.92501.4497-.10003.7343-.63319-.1207-1.29216-.3383-1.02094-1.0055-1.42313.1856-2.67403.7755-1.54894 2.2234l.0825.001zm3.43201-1.7376c.3331-1.2293 1.7871 1.0106.5466.165-.1475-.1114-.3919-.2011-.5466-.165zm.065-.5961c.4816-.3578.2557.2011 0 0zm.6115.0103c.0443-.5651 1.4004.3094.2238.2032zm.8353-.3361c.3063-.3579.0887.3165 0 0zm.2145-.1444c.5094-.6116 2.8803-.3919 1.1344-.0598-.4641-.3507-.8219.2062-1.1344.0598zm3.0938-.4775c-.0764-1.6706 1.5386.593 0 0zm.8786-.0051c.3197-.8415 1.2478-.3383.1495-.1692.0237.0897-.033.4352-.1495.1692zm-7.08781 4.4622c.95911-.5878-1.01784-.5095 0 0zm.7095.2062c.33621-.3578-.72187-.1444 0 0zm-2.08931-1.5004c.54656-.4229-.64969-.1599 0 0zm28.32842 17.722c.0155-.4888-.4187.2196 0 0zm-2.8772-1.9645c.0825-.5621-.3712.0484 0 0zm3.6713 2.1553c.7662.0031 2.3224-.2372.6548-.2372-.2619.0412-1.5262.0309-.6548.2372zm-26.4072-16.7754c.6208-.0412.9693-.6837-.1207-.6476-1.69124-.1753 1.4912.5796-.2062.363-.22898.1516.3238.3259.3372.2836zm.5465.2764c-.0649-.3981-.1918.2114 0 0zm.6497-1.7284c.2681-.3341-.3712-.0897 0 0zm-2.06249-3.4485c1.10759-.3764 2.62149-.7992 3.14529.1856-.5321-.6393-.2145-1.2705.2888-.3341.7115.9467 1.0663-.431.6043-.7487.5259.6538 1.1241.9632.3527.0413.8404-1.0106-1.681.132-2.2543.1206-.2754.1238-2.84629.6559-2.13472.7353zm.64969-1.2426c.6311-.4765 2.1842.2836 1.188-.4744-.098-.0856-2.18109.5744-1.188.4744zm2.3018.0948c.7383.0186-.3197-.9931.561-.5341-.1444-.4724-1.0251-.56-1.4562-.7498-.2433.4311.495 1.2891.8941 1.2839zm-1.8975-2.08927c.2557-.3465-.4486.17527 0 0zm.9363.22477c1.1911-.15774-.3032-.51249-.2403-.0123zm-1.75722-1.37152c-.83841-1.09519 1.57782.18356.72492-.96216-.71771-.57028-1.40555.6435-.72492.96216zm10.76002 5.79562c.3847-.6806-1.5881-.9178-.2578-.2413.1217.0412.0949.2887.2578.2413z" fill="#fff"/></svg>