<svg fill="none" height="44" viewBox="0 0 44 44" width="44" xmlns="http://www.w3.org/2000/svg"><path clip-rule="evenodd" d="m27.5071 18.3419c-.7509.1907-1.3691.3548-1.9986.522-.502.1333-1.0112.2685-1.6004.4206l-.0354.0095c-.288.0773-.318.0854-.5859-.2238-.3214-.3642-.557-.5998-1.0069-.814-1.3496-.6641-2.6564-.4713-3.8775.3213-1.4568.9426-2.2066 2.3351-2.1852 4.0704.0215 1.7138 1.1997 3.1277 2.8921 3.3634 1.4568.1928 2.6779-.3214 3.6419-1.414.143-.1747.2742-.3613.4199-.5684l.0002-.0003c.0507-.072.1031-.1465.1583-.2239h-4.1346c-.4499 0-.557-.2785-.407-.6427.2785-.6641.7926-1.7781 1.0926-2.3351.0642-.1285.2142-.3428.5355-.3428h6.8937c.3097-.9809.812-1.9078 1.4821-2.7848 1.5639-2.0566 3.4491-3.1278 5.9984-3.5777 2.1852-.3856 4.2418-.1713 6.1055 1.0926 1.6924 1.1569 2.7422 2.7207 3.0207 4.7773.3642 2.8921-.4713 5.2486-2.4637 7.2624-1.4139 1.4353-3.1491 2.3351-5.1414 2.7421-.3801.0704-.7602.1038-1.1341.1367-.1952.0171-.3888.0341-.5798.0561-1.9495-.0428-3.7276-.5998-5.2272-1.8852-1.0545-.9115-1.7809-2.0318-2.142-3.336-.2505.5057-.5499.99-.8995 1.4507-1.5424 2.0352-3.5562 3.2991-6.1055 3.6419-2.0994.2785-4.0489-.1285-5.7627-1.4139-1.5853-1.1997-2.4851-2.785-2.7208-4.7559-.2785-2.3351.4071-4.4346 1.821-6.2769 1.521-1.9924 3.5348-3.2563 5.9984-3.7062 2.0138-.3642 3.9418-.1285 5.6771 1.0497 1.1354.7498 1.9495 1.7781 2.485 3.0207.1286.1928.0429.2999-.2142.3642zm-24.18667.3856c-.08569 0-.10711-.0429-.06427-.1071l.44988-.5784c.04285-.0643.14996-.1072.23566-.1072h7.648c.0857 0 .1071.0643.0642.1286l-.3642.557c-.0428.0642-.1499.1285-.2142.1285zm-3.2347381 1.9709c-.08569187 0-.1071148-.0428-.064269-.1071l.4498811-.5784c.042846-.0643.149961-.1071.235653-.1071h9.768843c.0857 0 .1285.0642.1071.1285l-.1714.5142c-.0214.0857-.1071.1285-.1928.1285zm5.1201781 1.8423c-.04284.0642-.02142.1285.06427.1285l4.6702.0214c.06426 0 .14996-.0642.14996-.1499l.0428-.5142c0-.0857-.0428-.15-.1285-.15h-4.28458c-.08569 0-.17138.0643-.21423.1286zm34.47543-1.2358c.0042.0719.0086.1478.0149.2291-.1071 1.8424-1.0283 3.2134-2.7207 4.0918-1.1355.5784-2.3137.6426-3.492.1285-1.5424-.6855-2.3565-2.3779-1.9709-4.0489.4713-2.0138 1.7567-3.2777 3.749-3.7276 2.0352-.4713 3.9847.7284 4.3703 2.8492.0303.1517.0392.3034.0494.4779z" fill="#00acd7" fill-rule="evenodd"/></svg>