<svg fill="none" height="44" viewBox="0 0 44 44" width="44" xmlns="http://www.w3.org/2000/svg"><g fill="#4dabcf"><path d="m19.9294 13.0956-5.0117-2.5295-5.50168 2.7454 5.14798 2.5848z"/><path d="m22.2282 14.255 5.2546 2.6537-5.4517 2.7373-5.1561-2.5889z"/><path d="m29.2466 10.6039 5.3991 2.7076-4.8295 2.4242-5.2654-2.6563z"/><path d="m26.9223 9.43769-4.8605-2.43769-4.8079 2.39989 5.009 2.52541z"/><path d="m23.123 30.3672v6.6328l5.8877-2.9384-.0054-6.6355z"/><path d="m29.0026 25.1099-.0067-6.5653-5.8729 2.9196v6.568z"/><path d="m36.0715 23.8802v6.6585l-5.0225 2.5051-.0041-6.6273z"/><path d="m36.071 21.5519v-6.5248l-5.0319 2.5011.004 6.5788z"/></g><path d="m21.0442 21.4641-3.9656-1.9949v8.6169s-4.8511-10.3203-5.2992-11.2476c-.0581-.1202-.2956-.2511-.3564-.2835-.8746-.4562-3.423-1.7466-3.423-1.7466v15.2295l3.5256 1.8897v-7.9637s4.7984 9.2216 4.8484 9.3229c.0499.1012.5291 1.0717 1.0447 1.4132.6843.4549 3.6228 2.2217 3.6228 2.2217z" fill="#4d77cf"/></svg>