<svg fill="none" height="36" viewBox="0 0 36 36" width="36" xmlns="http://www.w3.org/2000/svg"><path clip-rule="evenodd" d="m29.4591 13.6492c.2332-.5269.8492-.7656 1.3772-.5324 0 0 .0011 0 .0011.0011.528.2332.7656.8525.5313 1.3794-.2321.5291-.8481.7678-1.3761.5346-.0011 0-.0022 0-.0022-.0011-.5269-.2343-.7656-.8525-.5313-1.3816zm-12.2353-9.84612c.4169-.3993 1.078-.3839 1.4784.0341.3982.4191.3828 1.0813-.0352 1.4806-.4169.3993-1.078.3828-1.4773-.0341-.3993-.4191-.3839-1.0813.0341-1.4806zm13.6455 14.08552c0 .3212-.0121.6391-.0352.9548h-1.32c-.132 0-.1848.0869-.1848.2167v.6061c0 1.4278-.8063 1.738-1.5103 1.8161-.6721.0759-1.4157-.2805-1.5081-.6919-.3971-2.2275-1.056-2.7038-2.0999-3.5266 1.2947-.8217 2.6411-2.0339 2.6411-3.6553 0-1.7523-1.2012-2.8556-2.0196-3.3968-1.1484-.75682-2.42-.90862-2.7632-.90862h-13.65541c1.85131-2.0669 4.36151-3.531 7.19951-4.0645l1.6093 1.6896c.363.3806.9658.3949 1.3464.033l.0022-.0022 1.7996-1.7215c3.7741.7018 6.9696 3.0503 8.811 6.27442l-1.2331 2.7841c-.2123.4818.0044 1.045.484 1.2584l2.3749 1.0549c.0407.4213.0616.847.0616 1.2793zm-15.7828-2.1813v-2.4233h4.3428c.2244 0 1.5829.2585 1.5829 1.276 0 .8448-1.0417 1.1462-1.8997 1.1462h-4.026zm-9.88131.7986 2.2517-1.001c.4818-.2145.6985-.7777.484-1.2595l-.4631-1.0483h1.8238v8.2203h-3.6795c-.3267-1.1473-.4917-2.3364-.4906-3.5288 0-.4675.0253-.9295.0737-1.3827zm1.2254-2.9073c.2343.5291-.0033 1.1473-.5313 1.3816-.5269.2343-1.1451-.0044-1.3794-.5324-.2343-.5291.0044-1.1473.5324-1.3816.5269-.2343 1.1451.0044 1.3783.5313zm3.98971 16.1788c-.56321.121-1.11871-.2387-1.24081-.803-.121-.5676.2376-1.1231.803-1.2441.56431-.1221 1.11981.2387 1.24081.803.121.5654-.2387 1.1231-.803 1.2441zm14.5464-3.3451c-.5148-.11-1.0208.2167-1.1308.7315v.0011l-.5258 2.4486c-1.6192.7348-3.4155 1.144-5.3097 1.144-1.9371 0-3.7741-.429-5.4219-1.1957l-.5236-2.4486c-.1111-.5148-.6171-.8426-1.1319-.7326l-2.16151.4642c-.4026-.4136-.7755-.8525-1.1176-1.3167h10.51711c.1188 0 .198-.022.198-.1298v-3.7202c0-.1089-.0792-.1298-.198-.1298h-3.0756v-2.3584h3.3264c.3036 0 1.6247.0858 2.046 1.7732.132.5192.4224 2.2077.6215 2.7478.198.6061 1.0021 1.8172 1.8601 1.8172h5.2415c.0594 0 .1221-.0066.1903-.0198-.3641.4939-.7634.9614-1.1924 1.3992l-2.211-.4752zm.5027 3.3957c-.5643-.121-.924-.6776-.8019-1.2441.121-.5654.6765-.9251 1.2397-.803.5643.121.924.6776.803 1.243-.1199.5643-.6765.9251-1.2408.8041zm9.8901-12.2595-1.4773-.9141c-.0121-.143-.0264-.2871-.0429-.4301l1.2716-1.1847c.1287-.1199.1859-.2992.1507-.4708-.0341-.1727-.1551-.3157-.3201-.3784l-1.6236-.6072c-.0407-.1397-.0825-.2783-.1265-.418l1.012-1.4069c.165-.2277.1133-.5456-.1144-.7095-.0649-.0462-.1386-.0781-.2156-.0891l-1.7127-.2794c-.066-.1287-.1353-.2585-.2046-.385l.7183-1.57742c.0737-.1606.0594-.3487-.0396-.495-.0968-.1463-.2651-.2321-.4411-.2255l-1.7369.0605c-.0902-.1122-.1815-.2233-.275-.3333l.4004-1.6918c.0407-.1716-.011-.352-.1364-.4763-.1243-.1254-.3047-.176-.4763-.1353l-1.6918.3982c-.11-.0924-.22-.1837-.3333-.2739l.0605-1.7369c.0077-.176-.0792-.3443-.2255-.4422s-.3333-.1122-.4939-.0396l-1.5774.7205c-.1276-.0704-.2563-.1386-.385-.2068l-.2794-1.7127c-.0451-.2772-.3069-.4642-.5841-.4191-.077.0121-.1518.044-.2145.0891l-1.408 1.012c-.1386-.044-.2772-.0858-.418-.1265l-.6072-1.6236c-.0616-.166101-.2046-.287101-.3773-.321201s-.3509.0231-.4708.1518l-1.1847 1.271601c-.1441-.0165-.2871-.0308-.4301-.0418l-.9141-1.478401c-.1485-.2387-.462-.3124-.7007-.165-.0671.0407-.1232.0979-.165.165l-.9152 1.478401c-.143.011-.2871.0253-.4301.0418l-1.1847-1.271601c-.1914-.2046-.5126-.2167-.7183-.0253-.0572.0539-.1023.1199-.1309.194701l-.6072 1.6236c-.1408.0407-.2794.0825-.418.1265l-1.4069-1.012c-.143-.1034-.33-.1254-.4917-.0572-.1628.0671-.2794.2145-.308.3872l-.2783 1.7127c-.1298.0682-.2585.1364-.385.2068l-1.57851-.7205c-.1606-.0726-.3476-.0583-.4939.0396s-.2321.2662-.2255.4422l.0605 1.7369c-.1133.0902-.2233.1815-.3333.2739l-1.6929-.3982c-.1705-.0407-.3509.0099-.4752.1353-.1254.1243-.1771.3047-.1364.4763l.3993 1.6918c-.0924.11-.1848.2211-.2739.3333l-1.738-.0605c-.1749-.0055-.3421.0803-.4411.2255-.0979.1463-.1122.3333-.0396.495l.7194 1.57742c-.0693.1265-.1386.2563-.2057.385l-1.7116.2794c-.2783.0451-.4664.3058-.4213.583.0132.0781.0451.1518.0902.2156l1.012 1.4069c-.044.1386-.0869.2783-.1265.418l-1.6236.6072c-.263999.099-.397099.3938-.298099.6567.0286.0726.0726.1386.1298.1925l1.270499 1.1847c-.0165.143-.0308.2871-.0418.4301l-1.478399.9141c-.1496.0924-.2409.2574-.2409.4334s.0913.3399.2409.4323l1.478399.9152c.011.143.0253.286.0418.429l-1.271599 1.1847c-.2046.1914-.2156.5137-.0242.7194.0539.0572.1199.1023.193599.1298l1.6236.6072c.0396.1408.0825.2805.1265.4191l-1.012 1.4069c-.1639.2277-.1133.5445.1144.7084.0649.0462.1386.0781.2167.0902l1.7116.2783c.0671.1298.1353.2585.2057.385l-.7194 1.5785c-.0726.1606-.0583.3476.0396.4939s.2662.2321.4411.2255l1.7369-.0605c.0902.1133.1815.2233.275.3333l-.3993 1.6929c-.0407.1705.011.3509.1364.4763.1243.1243.3047.176.4752.1342l1.6929-.3982c.11.0935.2211.1837.3333.2728l-.0605 1.738c-.011.2805.209.5159.4895.5269.0792.0022.1573-.0132.2299-.0462l1.57851-.7194c.1265.0704.2552.1397.385.2057l.2783 1.7116c.0286.1738.1452.3212.308.3883.1617.0682.3476.0462.4917-.0561l1.4069-1.0131c.1375.044.2772.0869.418.1265l.6072 1.6225c.0616.1661.2046.2871.3773.3212.1727.0352.3509-.0231.4719-.1518l1.1847-1.2705c.143.0165.2871.0308.4301.044l.9141 1.4762c.0935.1507.2574.2409.4334.2409s.3399-.0902.4323-.2409l.9152-1.4762c.143-.0132.2871-.0275.4301-.044l1.1836 1.2705c.121.1287.2992.187.4719.1518.1716-.0341.3146-.1551.3773-.3212l.6072-1.6225c.1408-.0396.2794-.0825.418-.1265l1.408 1.0131c.2277.1639.5456.1111.7095-.1166.0451-.0649.077-.1375.0891-.2156l.2783-1.7116c.1298-.066.2574-.1364.385-.2057l1.5785.7194c.2552.1166.5555.0055.6732-.2497.033-.0726.0495-.1507.0462-.231l-.0605-1.738c.1133-.0891.2233-.1804.3333-.2728l1.6918.3982c.1716.0407.352-.0099.4752-.1342.1265-.1254.1771-.3058.1375-.4763l-.3993-1.6929c.0924-.11.1837-.22.2728-.3333l1.738.0605c.176.0066.3432-.0792.4411-.2255s.1122-.3333.0396-.4939l-.7194-1.5785c.0704-.1265.1397-.2552.2057-.385l1.7116-.2783c.1738-.0275.3212-.1441.3883-.308.0671-.1617.0451-.3476-.0572-.4906l-1.012-1.4069c.044-.1386.0858-.2783.1265-.4191l1.6225-.6072c.1661-.0616.2871-.2046.3212-.3773.0352-.1727-.0231-.3509-.1518-.4719l-1.2705-1.1847c.0154-.143.0308-.286.0429-.429l1.4773-.9152c.1496-.0924.2409-.2563.2409-.4323s-.0902-.341-.2409-.4334z" fill="#fff" fill-rule="evenodd"/></svg>