<svg fill="none" height="44" viewBox="0 0 44 44" width="44" xmlns="http://www.w3.org/2000/svg"><path clip-rule="evenodd" d="m39.3731 34.4037c-3.478 4.6899-9.2324 6.2579-15.1735 6.2963-3.2511.021-13.2 0-13.2 0h-3.29999s2.56699-.8435 3.29999-1.1c5.9714-2.0904 7.4724-1.9152 11.1041-3.8047 6.8174-3.5378 15.2959-12.6953 15.2959-22.5953-2.1214 7.7786-10.8029 17.6752-17.9899 20.3595-4.4716 1.8166-9.1398 3.1055-13.91009 3.8405-1.31948-1.0674-2.39492-2.4051-3.1539-3.923-.75899-1.518-1.18389-3.181-1.2461-4.877.0763-2.6854.96796-5.284 2.55649-7.4506 1.58853-2.1665 3.79871-3.7984 6.33688-4.6787 4.81982-1.8771 7.89882-2.012 13.10662-3.2707 5.7514-1.4614 12.763-5.53384 16.5-10.99999 2.0478 6.40665 3.1592 13.07549 3.3 19.79999 0 4.6339-.8955 8.8551-3.5265 12.4037z" fill="#6cc149" fill-rule="evenodd"/></svg>