<svg fill="none" height="44" viewBox="0 0 44 44" width="44" xmlns="http://www.w3.org/2000/svg" xmlns:xlink="http://www.w3.org/1999/xlink"><mask id="a" height="20" maskUnits="userSpaceOnUse" width="28" x="11" y="11"><path d="m11.5508 11.5511h27.1942v18.6956h-27.1942z" fill="#fff"/></mask><g mask="url(#a)"><path clip-rule="evenodd" d="m25.1583 14.4787h-.0176-.0033c-5.9675 0-11.1259-1.1946-13.5866-2.9282.0011 9.092 4.637 13.7307 8.1889 18.6961h5.4148 3.2059 2.1951c3.7823-4.9654 8.1884-9.6041 8.1895-18.6961-2.4607 1.7336-7.6192 2.9282-13.5867 2.9282z" fill="#399fd6" fill-rule="evenodd"/></g><g clip-rule="evenodd" fill="#399fd6" fill-rule="evenodd"><path d="m36.9012 17.6982h-2.1032v1.8155l2.2033.1067c.583 0 2.2853-.1919 2.2853 2.0378s-1.5609 2.3452-2.2853 2.3452l-5.5605.1243v1.771h5.4604c2.1747 0 4.3516-.7722 4.3516-4.1003 0-3.3275-2.1428-4.1002-4.3516-4.1002zm-11.5278-7.4987c-5.2167 0-9.7642-1.00682-12.1722-2.49949.9586 2.49549 6.0182 4.39999 12.118 4.39999 6.0287 0 11.0391-1.8595 12.082-4.31074-2.4431 1.44308-6.9145 2.41024-12.0278 2.41024zm2.8262-7.81559c-.034.00736-.0679.00962-.1024.01584 1.9137.23647 3.2941.88816 3.2941 1.78537 0 1.13819-1.537 1.77121-3.7278.77614-.3285-.14991-3.1556-2.27752-4.6844-2.61016-2.6574-.57758-4.8279.59569-4.8279 1.91152 0 1.31696 2.1404 2.66559 4.801 2.10611.034-.00679.0685-.00962.1024-.01527-1.9132-.23647-3.2936-.88872-3.2936-1.78593 0-1.13763 1.5365-1.77122 3.7273-.77558.3291.14935 2.3874 1.99524 4.6844 2.61016 2.6294.70373 4.8285-.59569 4.8285-1.91208s-2.1405-2.6656-4.8016-2.10612z"/><path d="m2.66406 40.096 1.32438-1.5817c.85794.6745 1.78993 1.03 2.783 1.03.64994 0 .99306-.221.99306-.5886v-.0245c0-.3676-.28205-.5517-1.45891-.8338-1.82682-.4168-3.23704-.9317-3.23704-2.685v-.0245c0-1.5937 1.26301-2.7464 3.32289-2.7464 1.45891 0 2.59919.3924 3.5306 1.1403l-1.18925 1.6796c-.78449-.5638-1.64272-.8459-2.40272-.8459-.57619 0-.85823.2328-.85823.5517v.0248c0 .3921.29414.5638 1.49579.8335 1.96164.4289 3.18747 1.0665 3.18747 2.6726v.0245c0 1.7534-1.38544 2.7957-3.46952 2.7957-1.52027 0-2.9547-.4785-4.02152-1.4223zm13.85564-.8216-1.1896-1.0175 1.2017-1.3486 1.1647 1.0665c.0983-.2696.1472-.5517.1472-.8582v-.0245c0-1.2382-.8951-2.3295-2.2068-2.3295-1.312 0-2.1826 1.0789-2.1826 2.3174v.0245c0 1.2382.883 2.3295 2.2071 2.3295.3066 0 .6004-.0613.8583-.1596zm2.6726 2.3541-.9441-.8462c-.7358.4906-1.6306.7603-2.6113.7603-2.6484 0-4.6098-1.974-4.6098-4.4381v-.0245c0-2.4646 1.9859-4.4629 4.6343-4.4629 2.6482 0 4.6095 1.9738 4.6095 4.4381v.0248c0 .9069-.2817 1.7531-.7597 2.4644l.8825.7476z"/><path d="m21.5 32.7888h2.3782v6.4977h4.1569v2.0845h-6.5351z"/></g></svg>